HIERARCHY
ROOT Hips
{
  OFFSET 5.84602e-005 68.8428 3.50346
  CHANNELS 6 Xposition Yposition Zposition Zrotation Xrotation Yrotation
  JOINT Spine
  {
    OFFSET 0 8.597 -4.6522
    CHANNELS 3 Zrotation Xrotation Yrotation
    JOINT Spine1
    {
      OFFSET 0 7.8454 0.4098
      CHANNELS 3 Zrotation Xrotation Yrotation
      JOINT Spine2
      {
        OFFSET 0 9.7078 -2.1609
        CHANNELS 3 Zrotation Xrotation Yrotation
        JOINT Neck
        {
          OFFSET 0 21.8761 -0.4549
          CHANNELS 3 Zrotation Xrotation Yrotation
          JOINT Head
          {
            OFFSET 0 12.3537 3.3602
            CHANNELS 3 Zrotation Xrotation Yrotation
            End Site
            {
              OFFSET 0.0001 18.9506 0.5657
            }
          }
        }
        JOINT LeftShoulder
        {
          OFFSET 2.2086 21.1115 7.2329
          CHANNELS 3 Zrotation Xrotation Yrotation
          JOINT LeftArm
          {
            OFFSET 13.1193 3.0282 -4.8998
            CHANNELS 3 Zrotation Xrotation Yrotation
            JOINT LeftForeArm
            {
              OFFSET 27.4081 -0.0973053 -0.2375
              CHANNELS 3 Zrotation Xrotation Yrotation
              JOINT LeftHand
              {
                OFFSET 22.8641 0.0662994 -0.1369
                CHANNELS 3 Zrotation Xrotation Yrotation
                JOINT LeftHandIndex1
                {
                  OFFSET 8.8614 0.775009 2.4612
                  CHANNELS 3 Zrotation Xrotation Yrotation
                  JOINT LeftHandIndex2
                  {
                    OFFSET 3.3146 -0.808304 0.5841
                    CHANNELS 3 Zrotation Xrotation Yrotation
                    JOINT LeftHandIndex3
                    {
                      OFFSET 2.2628 -0.552002 0.3989
                      CHANNELS 3 Zrotation Xrotation Yrotation
                      End Site
                      {
                        OFFSET 1.6102 -0.4807 0.2612
                      }
                    }
                  }
                }
                JOINT LeftHandMiddle1
                {
                  OFFSET 8.9937 0.895004 0.2143
                  CHANNELS 3 Zrotation Xrotation Yrotation
                  JOINT LeftHandMiddle2
                  {
                    OFFSET 4.0984 0.0113983 -0.0242
                    CHANNELS 3 Zrotation Xrotation Yrotation
                    JOINT LeftHandMiddle3
                    {
                      OFFSET 2.2716 0.00689697 -0.0138001
                      CHANNELS 3 Zrotation Xrotation Yrotation
                      End Site
                      {
                        OFFSET 2.0404 -0.1441 0.0027
                      }
                    }
                  }
                }
                JOINT LeftHandRing1
                {
                  OFFSET 8.5234 0.597198 -2.0164
                  CHANNELS 3 Zrotation Xrotation Yrotation
                  JOINT LeftHandRing2
                  {
                    OFFSET 3.7188 -0.188293 -0.2328
                    CHANNELS 3 Zrotation Xrotation Yrotation
                    JOINT LeftHandRing3
                    {
                      OFFSET 2.1191 -0.106598 -0.1332
                      CHANNELS 3 Zrotation Xrotation Yrotation
                      End Site
                      {
                        OFFSET 1.8737 -0.2304 -0.0886
                      }
                    }
                  }
                }
                JOINT LeftHandPinky1
                {
                  OFFSET 7.9094 -0.601089 -3.4825
                  CHANNELS 3 Zrotation Xrotation Yrotation
                  JOINT LeftHandPinky2
                  {
                    OFFSET 2.2874 -0.477005 -0.6314
                    CHANNELS 3 Zrotation Xrotation Yrotation
                    JOINT LeftHandPinky3
                    {
                      OFFSET 1.6774 -0.349396 -0.4633
                      CHANNELS 3 Zrotation Xrotation Yrotation
                      End Site
                      {
                        OFFSET 1.4888 -0.4091 -0.3416
                      }
                    }
                  }
                }
                JOINT LeftHandThumb1
                {
                  OFFSET 1.833 -1.3875 1.3896
                  CHANNELS 3 Zrotation Xrotation Yrotation
                  JOINT LeftHandThumb2
                  {
                    OFFSET 3.4129 -1.121 2.5732
                    CHANNELS 3 Zrotation Xrotation Yrotation
                    JOINT LeftHandThumb3
                    {
                      OFFSET 2.2474 -0.804199 1.6192
                      CHANNELS 3 Zrotation Xrotation Yrotation
                      End Site
                      {
                        OFFSET 1.6527 -0.5689 1.1317
                      }
                    }
                  }
                }
              }
            }
          }
        }
        JOINT RightShoulder
        {
          OFFSET -2.2086 21.1115 7.2329
          CHANNELS 3 Zrotation Xrotation Yrotation
          JOINT RightArm
          {
            OFFSET -13.1216 3.0287 -4.9007
            CHANNELS 3 Zrotation Xrotation Yrotation
            JOINT RightForeArm
            {
              OFFSET -27.4081 -0.0973053 -0.2375
              CHANNELS 3 Zrotation Xrotation Yrotation
              JOINT RightHand
              {
                OFFSET -22.8641 0.0664063 -0.1369
                CHANNELS 3 Zrotation Xrotation Yrotation
                JOINT RightHandIndex1
                {
                  OFFSET -8.8614 0.774994 2.4612
                  CHANNELS 3 Zrotation Xrotation Yrotation
                  JOINT RightHandIndex2
                  {
                    OFFSET -3.3146 -0.808304 0.5841
                    CHANNELS 3 Zrotation Xrotation Yrotation
                    JOINT RightHandIndex3
                    {
                      OFFSET -2.2628 -0.552002 0.3989
                      CHANNELS 3 Zrotation Xrotation Yrotation
                      End Site
                      {
                        OFFSET -1.6102 -0.4807 0.2612
                      }
                    }
                  }
                }
                JOINT RightHandMiddle1
                {
                  OFFSET -8.9937 0.894989 0.2143
                  CHANNELS 3 Zrotation Xrotation Yrotation
                  JOINT RightHandMiddle2
                  {
                    OFFSET -4.0984 0.0113983 -0.0242
                    CHANNELS 3 Zrotation Xrotation Yrotation
                    JOINT RightHandMiddle3
                    {
                      OFFSET -2.2716 0.00691223 -0.0138001
                      CHANNELS 3 Zrotation Xrotation Yrotation
                      End Site
                      {
                        OFFSET -2.0404 -0.1441 0.0027
                      }
                    }
                  }
                }
                JOINT RightHandRing1
                {
                  OFFSET -8.5234 0.597198 -2.0164
                  CHANNELS 3 Zrotation Xrotation Yrotation
                  JOINT RightHandRing2
                  {
                    OFFSET -3.7188 -0.188309 -0.2328
                    CHANNELS 3 Zrotation Xrotation Yrotation
                    JOINT RightHandRing3
                    {
                      OFFSET -2.1191 -0.106598 -0.1332
                      CHANNELS 3 Zrotation Xrotation Yrotation
                      End Site
                      {
                        OFFSET -1.8737 -0.2304 -0.0886
                      }
                    }
                  }
                }
                JOINT RightHandPinky1
                {
                  OFFSET -7.9094 -0.601105 -3.4825
                  CHANNELS 3 Zrotation Xrotation Yrotation
                  JOINT RightHandPinky2
                  {
                    OFFSET -2.2874 -0.477005 -0.6314
                    CHANNELS 3 Zrotation Xrotation Yrotation
                    JOINT RightHandPinky3
                    {
                      OFFSET -1.6774 -0.349396 -0.4633
                      CHANNELS 3 Zrotation Xrotation Yrotation
                      End Site
                      {
                        OFFSET -1.4888 -0.4091 -0.3416
                      }
                    }
                  }
                }
                JOINT RightHandThumb1
                {
                  OFFSET -1.833 -1.38751 1.3896
                  CHANNELS 3 Zrotation Xrotation Yrotation
                  JOINT RightHandThumb2
                  {
                    OFFSET -3.41299 -1.12099 2.5732
                    CHANNELS 3 Zrotation Xrotation Yrotation
                    JOINT RightHandThumb3
                    {
                      OFFSET -2.24741 -0.804108 1.6192
                      CHANNELS 3 Zrotation Xrotation Yrotation
                      End Site
                      {
                        OFFSET -1.6527 -0.5689 1.1317
                      }
                    }
                  }
                }
              }
            }
          }
        }
      }
    }
  }
  JOINT RightUpLeg
  {
    OFFSET -9.1966 3.8861 -0.7581
    CHANNELS 3 Zrotation Xrotation Yrotation
    JOINT RightLeg
    {
      OFFSET -0.7359 -41.0265 0
      CHANNELS 3 Zrotation Xrotation Yrotation
      JOINT RightFoot
      {
        OFFSET 0 -40.2855 0
        CHANNELS 3 Zrotation Xrotation Yrotation
        JOINT RightToeBase
        {
          OFFSET 0 -5.6122 11.7359
          CHANNELS 3 Zrotation Xrotation Yrotation
          End Site
          {
            OFFSET 0 0 7.8731
          }
        }
      }
    }
  }
  JOINT LeftUpLeg
  {
    OFFSET 9.1965 3.8864 -0.7581
    CHANNELS 3 Zrotation Xrotation Yrotation
    JOINT LeftLeg
    {
      OFFSET 0.7359 -41.0268 0
      CHANNELS 3 Zrotation Xrotation Yrotation
      JOINT LeftFoot
      {
        OFFSET 0 -40.2855 0
        CHANNELS 3 Zrotation Xrotation Yrotation
        JOINT LeftToeBase
        {
          OFFSET 0 -5.6122 11.7359
          CHANNELS 3 Zrotation Xrotation Yrotation
          End Site
          {
            OFFSET 0 0 7.8731
          }
        }
      }
    }
  }
}
MOTION
Frames:	5
Frame Time:	0.0333333
5.84602e-005 68.8428 3.50346 0 0 -0 0 0 -0 0 0 -0 0 0 -0 0 0 -0 0 0 -0 0 0 -0 0 0 -0 0 0 -0 0 0 -0 0 0 -0 0 0 -0 0 0 -0 0 0 -0 -0.0146107 -8.87603e-005 -2.63497e-007 2.99804e-018 -2.42657e-020 -1.42182e-022 0 0 -0 -0.0187562 -0.001176 5.858e-005 5.06224e-018 3.88251e-019 1.21329e-020 0 0 -0 -0.012269 -0.00324817 0.000675346 -1.74678e-018 3.88251e-019 -0 0 0 -0 0 0 -0 0 0 -0 0 0 -0 0 0 -0 0 0 -0 0 0 -0 0 0 -0 0 0 -0 0 0 -0 0 0 -0 0.0149955 -9.10982e-005 2.64101e-007 -9.69331e-018 1.21329e-020 -4.7394e-023 0 0 -0 0.0189956 -0.00119102 -5.96516e-005 -5.41541e-019 0 2.42657e-020 0 0 -0 0.0122698 -0.00324857 -0.000673756 -2.00796e-019 0 -1.94126e-019 0 0 -0 0 0 -0 0 0 -0 3.39842 1.33031 -0.0637918 -5.65207e-008 0.834868 -0.000436188 -3.39935 -2.16518 -0.0642563 -8.89002e-024 -1.18485e-023 -1.48106e-024 -3.39844 1.35642 0.0640283 -3.18788e-007 0.782166 -0.000588827 3.39931 -2.13858 0.0634662 1.1399e-023 0 -0 
-35.358 37.1068 12.0002 0.539873 0.509323 133.331 -0.0240239 3.31734 -0.173818 -0.038037 6.63476 -0.347107 -0.0380346 6.63475 -0.347114 0.000123029 -16.3647 8.9092e-006 -3.0677e-006 -10.4617 -9.09289e-006 15.8458 -19.3853 0.979207 -45.7287 15.3256 -49.2752 -14.3252 5.52464 -60.1578 -29.5231 0.389792 -8.79099 3.35782e-007 -2.18163e-007 7.50213e-007 -1.43125e-014 1.27222e-014 1.59028e-015 3.35782e-007 -2.18163e-007 7.50213e-007 3.35782e-007 -2.18163e-007 7.50213e-007 -0.0145877 -8.50879e-005 -3.79391e-006 3.35773e-007 -2.18258e-007 7.50185e-007 3.35782e-007 -2.18163e-007 7.50213e-007 -0.0187079 -0.00116719 6.11235e-005 4.60053e-007 2.28608e-006 9.3556e-007 3.35782e-007 -2.18163e-007 7.50213e-007 -0.0122771 -0.00325202 0.000676691 1.31866e-006 3.18243e-006 1.29549e-006 3.35782e-007 -2.18163e-007 7.50213e-007 -1.43125e-014 1.27222e-014 1.59028e-015 3.35782e-007 -2.18163e-007 7.50213e-007 -3.21844 -7.71737 3.72194 39.1974 4.3512 41.9371 13.463 -17.522 81.6657 35.668 -13.791 13.0272 4.01551e-006 -4.55235e-007 -2.64134e-006 4.01551e-006 -4.55235e-007 -2.64134e-006 4.01551e-006 -4.55235e-007 -2.64134e-006 4.01551e-006 -4.55235e-007 -2.64134e-006 0.0150025 -9.10488e-005 -1.37233e-005 4.01553e-006 -4.5558e-007 -2.64129e-006 4.01551e-006 -4.55235e-007 -2.64134e-006 0.0190122 -0.00119286 -5.4743e-005 4.01551e-006 -4.55672e-007 -2.64131e-006 4.01551e-006 -4.55235e-007 -2.64134e-006 0.0122672 -0.00325037 -0.000681811 4.01546e-006 -4.55497e-007 -2.64141e-006 4.01551e-006 -4.55235e-007 -2.64134e-006 4.01551e-006 -4.55235e-007 -2.64134e-006 4.01551e-006 -4.55235e-007 -2.64134e-006 -7.75661 -9.56922 -10.7965 -31.324 85.6657 31.8422 -3.26088 23.4909 -3.44611 4.30848e-006 2.15244e-007 5.16678e-007 8.91448 -9.70199 9.89984 30.5898 85.5911 -31.1176 3.27322 23.8455 1.87683 2.45483e-006 -7.47667e-007 -2.37819e-006 
-56.4559 22.8759 17.1906 -0.24821 1.04716 -166.664 -0.0243697 4.80986 -0.256416 -0.0271804 9.61987 -0.513419 -0.0271813 9.61988 -0.513417 2.35893e-006 -23.3913 9.76057e-006 3.54247e-007 -14.7194 1.4712e-006 23.2205 -28.1041 1.51842 -59.9475 11.7355 -71.3718 -18.6626 0.944528 -86.6929 -42.7697 0.55782 -12.7473 -3.02558e-007 3.25986e-006 -3.03751e-008 1.01593e-007 1.1836e-008 -3.04667e-008 -4.29549e-007 3.24506e-006 7.70834e-009 -3.02558e-007 3.25986e-006 -3.03751e-008 -0.0146209 -8.11581e-005 1.57404e-006 -5.41283e-007 3.89304e-006 -1.02365e-007 -3.02558e-007 3.25986e-006 -3.03751e-008 -0.0187537 -0.00117301 5.79094e-005 -4.29707e-007 3.24505e-006 8.24432e-009 -3.02558e-007 3.25986e-006 -3.03751e-008 -0.0122995 -0.00325385 0.000677712 -4.29634e-007 3.24503e-006 8.07461e-009 -3.02558e-007 3.25986e-006 -3.03751e-008 1.01593e-007 1.1836e-008 -3.04667e-008 -4.29549e-007 3.24506e-006 7.70834e-009 -4.33389 -11.1641 5.45132 55.1001 4.14648 60.8618 21.5005 12.4038 88.9545 53.8508 -19.4202 19.4852 -1.02249e-006 1.1508e-005 -6.77959e-006 -1.24219e-006 1.7382e-006 4.35508e-007 -1.96168e-006 -2.77773e-007 -2.57659e-006 -1.02249e-006 1.1508e-005 -6.77959e-006 0.0150368 -8.50636e-005 -1.93943e-006 -1.96154e-006 -2.78112e-007 -2.57655e-006 -1.02249e-006 1.1508e-005 -6.77959e-006 0.0189931 -0.00118793 -5.49626e-005 -1.96153e-006 -2.78212e-007 -2.57653e-006 -1.02249e-006 1.1508e-005 -6.77959e-006 0.0122652 -0.0032456 -0.000675826 -1.96164e-006 -2.78091e-007 -2.57651e-006 -1.02249e-006 1.1508e-005 -6.77959e-006 -1.24219e-006 1.7382e-006 4.35508e-007 -1.96168e-006 -2.77773e-007 -2.57659e-006 -13.6112 -13.6439 -17.2601 -171.08 56.3441 169.615 -1.32407 35.6927 -6.46756 -3.74755e-006 -5.17894e-007 -5.00059e-007 15.2406 -13.9129 15.933 171.057 56.4493 -169.612 1.94614 36.29 3.87048 -4.98418e-007 2.80721e-007 -1.59706e-006 
-51.6619 26.3311 15.4433 -6.894e-015 1.00189 180 -0.0248746 4.47824 -0.237778 -0.0311841 8.95656 -0.475791 -0.0311841 8.95656 -0.475791 -9.77637e-007 -21.0789 -2.02788e-006 -1.77561e-011 -12.7729 -1.57117e-007 21.5658 -26.167 1.38941 -56.7544 13.2387 -66.7159 -17.5413 2.40121 -80.9 -39.8281 0.521093 -11.8681 -3.18055e-015 -3.18055e-015 3.18055e-015 -1.59028e-015 0 3.18055e-015 1.59028e-015 6.36111e-015 -1.59028e-015 -3.18055e-015 -3.18055e-015 3.18055e-015 -0.0145991 -8.88806e-005 5.31881e-007 1.59028e-015 -1.59028e-014 -3.18055e-015 -3.18055e-015 -3.18055e-015 3.18055e-015 -0.0186881 -0.00117025 5.99986e-005 -2.64834e-031 -9.54166e-015 -1.59028e-015 -3.18055e-015 -3.18055e-015 3.18055e-015 -0.0121804 -0.00322457 0.000670236 -1.59028e-015 -6.36111e-015 -4.77083e-015 -3.18055e-015 -3.18055e-015 3.18055e-015 -1.59028e-015 0 3.18055e-015 1.59028e-015 6.36111e-015 -1.59028e-015 -4.10436 -10.4004 5.06243 51.5998 4.35186 56.6653 19.904 5.37914 90.1687 49.6912 -18.2188 18.0022 3.52891e-007 3.90948e-006 -9.7753e-007 -3.43962e-007 6.10956e-008 2.44342e-007 3.52891e-007 3.90948e-006 -9.7753e-007 3.52891e-007 3.90948e-006 -9.7753e-007 0.0149453 -8.55186e-005 -9.05681e-007 3.52172e-007 3.90935e-006 -9.7804e-007 3.52891e-007 3.90948e-006 -9.7753e-007 0.019024 -0.00118656 -5.93191e-005 3.51965e-007 3.90937e-006 -9.7818e-007 3.52891e-007 3.90948e-006 -9.7753e-007 0.0122754 -0.00324719 -0.000678013 3.5225e-007 3.90953e-006 -9.77927e-007 3.52891e-007 3.90948e-006 -9.7753e-007 -3.43962e-007 6.10956e-008 2.44342e-007 3.52891e-007 3.90948e-006 -9.7753e-007 -12.183 -12.3356 -15.4703 -169.507 65.1784 168.761 -1.96771 32.9704 -5.57144 3.04422e-007 -5.28623e-006 1.07648e-006 13.7375 -12.5617 14.2841 169.474 65.2787 -168.743 2.40961 33.5021 3.23651 1.47684e-007 -2.30308e-006 3.55586e-007 
-51.662 26.5695 15.2597 -6.894e-015 1.00189 180 -0.0248746 4.47824 -0.237778 -0.0311841 8.95655 -0.475791 -0.0311841 8.95656 -0.475791 -2.84283e-007 -20.4641 -9.51996e-007 1.60304e-007 -11.9537 5.67509e-007 21.5658 -26.167 1.38941 -56.7544 13.2387 -66.7159 -17.5413 2.40121 -80.9 -39.8281 0.52108 -11.8681 -5.51615e-008 -1.50144e-006 -6.70138e-008 -3.97466e-007 -5.20598e-008 1.45499e-007 5.51615e-008 1.50144e-006 6.70138e-008 -5.51615e-008 -1.50144e-006 -6.70138e-008 -0.0146454 -8.38501e-005 1.2376e-006 1.59028e-015 -3.18055e-015 3.18055e-015 -5.51615e-008 -1.50144e-006 -6.70138e-008 -0.0186842 -0.0011695 5.58686e-005 3.18055e-015 -1.59028e-014 -0 -5.51615e-008 -1.50144e-006 -6.70138e-008 -0.0122243 -0.00323665 0.000674606 -4.77083e-015 6.36111e-015 3.18055e-015 -5.51615e-008 -1.50144e-006 -6.70138e-008 -3.97466e-007 -5.20598e-008 1.45499e-007 5.51615e-008 1.50144e-006 6.70138e-008 -4.10436 -10.4004 5.06243 51.5998 4.35186 56.6653 19.904 5.37915 90.1687 49.6912 -18.2187 18.0022 1.67438e-006 9.35178e-006 -8.68979e-007 -3.52733e-007 1.68214e-006 -4.54292e-008 3.43962e-007 -6.10955e-008 -2.44342e-007 1.67438e-006 9.35178e-006 -8.68979e-007 0.015006 -8.32385e-005 -5.36627e-007 3.43965e-007 -6.11275e-008 -2.44335e-007 1.67438e-006 9.35178e-006 -8.68979e-007 0.0190433 -0.00119751 -6.12322e-005 3.43964e-007 -6.11362e-008 -2.44336e-007 1.67438e-006 9.35178e-006 -8.68979e-007 0.0122686 -0.00324444 -0.000675525 3.43958e-007 -6.11203e-008 -2.44346e-007 1.67438e-006 9.35178e-006 -8.68979e-007 -3.52733e-007 1.68214e-006 -4.54292e-008 3.43962e-007 -6.10955e-008 -2.44342e-007 -12.1176 -12.0003 -15.3656 -169.383 65.7022 168.681 -1.98235 32.9724 -5.54594 2.0599e-006 3.28541e-006 1.33134e-007 13.6945 -12.2211 14.211 169.348 65.8005 -168.661 2.42442 33.504 3.21113 9.01765e-007 3.07686e-006 3.22965e-007 
